<svg xmlns="http://www.w3.org/2000/svg" viewBox="230 195 564 511" width="564" height="511">
  <g fill="#0796D4">
    <path d="M237 450h44l7 4 4 5 2 6 2 27 4 22 6 22 10 24 11 20 12 17 11 13 13 14 22 18 21 13 23 11 19 7 25 6 23 3h32l22-3 23-5 20-7 18-8 22-13 12-9 11-9 13-12 7-8 12-15 10-15 13-25 8-21 6-23 3-18 2-27 3-7 5-5 5-2h44l5 4 2 4v6l-4 6-3 2-34 1-2 25-5 25-6 20-10 25-10 19-12 18-10 13-9 10-7 8-14 13-17 13-19 12-23 12-25 9-18 5-22 4-24 2-29-1-28-4-20-5-23-8-23-11-18-11-14-10-13-11-17-16-9-11-10-12-12-19-12-23-8-20-7-23-4-21-2-20v-8l-11 1h-19l-7-3-4-6v-6l4-6z"/>
    <path d="M469 333h66l-6 17-14 36-22 58-8 22h59l-2 6-19 39-13 28-22 45-13 28-5 11-1 3-2-1 12-58 14-70h-56l1-10 12-61 18-90z" fill="#0795D3"/>
    <path d="M419 212l3 1 13 40-1 2-16 7-15 8-15 10h-4l-7-8-10-13-9-11 1-3 16-11 17-10 19-9z"/>
    <path d="M500 195h4v45l-28 3-26 6-4-9-11-33 16-5 19-4 15-2z"/>
    <path d="M345 256h2l9 12 11 14 6 8-2 4-13 12-9 10-13 18-5-2-33-21 2-5 10-14 10-11 7-8 12-12z" fill="#216AB3"/>
    <path d="M289 324l5 2 23 14 10 7-9 19-7 19-5 19-19-1-26-2 1-10 7-25 10-24 9-17z" fill="#2A3B95"/>
  </g>
  <g fill="#F5BD27">
    <path d="M535 333h69l-6 12-14 24-12 22-14 24-9 16-1 3 3-1h59l-2 5-14 18-10 14-16 21-10 14-16 21-10 14-15 20-13 18-12 16-13 18-8 11-1-3 16-33 11-23 12-25 16-34 19-39h-59l1-6 15-40 16-42 17-44z"/>
    <path d="M603 212l10 3 19 9 17 10 14 10 3 3-8 10-14 18-5 6-5-2-15-10-19-10-11-5 3-11 10-30z"/>
    <path d="M519 195l20 1 21 3 24 6 4 2-1 6-11 33-3 3-19-5-19-3-15-1-1-1z"/>
    <path d="M733 324l3 1 13 27 6 16 6 22 1 11-39 3h-5l-7-24-11-26-3-5v-3l20-12z" fill="#F7CB36"/>
    <path d="M677 257l4 1 26 26 11 14 8 11-2 4-22 13-13 8-4-4-9-12-12-14-12-11-1-3 11-14 14-18z" fill="#F7CB36"/>
  </g>
</svg>
