<?xml version="1.0" encoding="UTF-8"?>
<svg
  xmlns="http://www.w3.org/2000/svg"
  viewBox="300 150 450 450"
  role="img"
  aria-label="Electric Barometer logo">

  <defs>
    <style>
      .gauge { fill: #2F4A5D; }
      .bolt  { fill: #E6A11A; }
    </style>
  </defs>

  <!-- Bolt -->
  <path
    class="bolt"
    d="
      M 410.86 497.43
      A 0.34 0.33 84.4 0 1 410.35 497.01
      Q 413.49 491.56 417.69 484.15
      Q 429.80 462.79 473.67 385.87
      Q 481.97 371.32 484.20 368.83
      Q 490.94 361.32 500.66 357.53
      A 0.17 0.17 0.0 0 0 500.60 357.21
      L 458.15 357.15
      A 0.32 0.32 0.0 0 1 457.83 356.83
      Q 457.83 356.65 458.12 356.37
      Q 467.62 347.29 485.92 330.66
      Q 513.74 305.37 640.85 188.61
      Q 642.68 186.93 644.81 185.33
      A 0.28 0.28 0.0 0 1 645.22 185.71
      Q 576.59 290.05 563.54 309.77
      Q 560.28 314.69 555.56 319.31
      Q 527.00 347.27 513.06 360.81
      A 5.47 5.38 15.7 0 1 510.55 362.19
      Q 508.44 362.70 504.59 363.64
      C 491.17 366.89 482.08 378.31 481.01 392.01
      C 480.03 404.60 485.52 415.37 495.70 422.49
      A 0.46 0.46 0.0 0 1 495.74 423.22
      L 410.86 497.43
      Z"
  />

  <!-- Gauge left arc + top tick -->
  <path
    class="gauge"
    d="
      M 518.57 247.51
      L 518.57 270.99
      A 0.64 0.64 0.0 0 1 517.93 271.63
      L 506.18 271.63
      A 0.31 0.31 0.0 0 1 505.87 271.32
      L 505.87 247.82
      A 0.81 0.80 88.0 0 0 505.01 247.01
      Q 455.40 250.35 417.39 282.30
      A 0.29 0.28 -42.4 0 0 417.37 282.72
      L 433.40 298.76
      A 0.91 0.91 0.0 0 1 433.40 300.05
      L 425.93 307.53
      A 1.24 1.24 0.0 0 1 424.18 307.53
      L 408.31 291.65
      A 0.75 0.75 0.0 0 0 407.24 291.66
      C 383.21 316.69 368.04 348.07 365.20 382.83
      A 0.52 0.51 2.5 0 0 365.72 383.39
      L 403.02 383.39
      A 0.53 0.52 0.0 0 1 403.55 383.91
      L 403.55 397.11
      A 0.66 0.66 0.0 0 1 402.89 397.77
      L 332.73 397.77
      A 0.78 0.78 0.0 0 1 331.95 397.00
      Q 331.59 380.29 334.08 364.04
      C 339.86 326.46 358.14 291.86 385.39 265.18
      Q 432.75 218.81 499.49 213.98
      C 526.02 212.06 551.91 216.95 576.63 226.02
      A 0.55 0.54 34.6 0 1 576.80 226.94
      L 550.02 250.35
      A 0.79 0.78 30.0 0 1 549.32 250.53
      Q 533.64 247.20 519.22 246.88
      A 0.63 0.63 0.0 0 0 518.57 247.51
      Z"
  />

  <!-- Gauge right arc -->
  <path
    class="gauge"
    d="
      M 623.27 249.66
      Q 625.76 251.27 630.34 255.46
      C 660.96 283.55 682.58 319.43 689.51 360.45
      Q 692.25 376.63 692.29 391.49
      Q 692.30 394.67 692.09 397.21
      A 0.58 0.58 0.0 0 1 691.51 397.75
      L 621.58 397.75
      A 0.68 0.67 -90.0 0 1 620.91 397.07
      L 620.91 383.88
      A 0.45 0.45 0.0 0 1 621.36 383.43
      L 665.31 383.43
      A 0.57 0.56 87.2 0 0 665.87 382.81
      Q 662.57 348.61 645.51 319.76
      Q 634.54 301.20 616.01 283.65
      C 613.03 280.82 609.38 278.43 606.42 275.59
      A 0.77 0.76 38.3 0 1 606.30 274.62
      L 622.28 249.87
      A 0.72 0.72 0.0 0 1 623.27 249.66
      Z"
  />

  <!-- Needle + hub -->
  <path
    class="gauge"
    d="
      M 612.82 287.95
      C 612.59 289.06 611.46 290.16 610.61 291.20
      Q 581.25 327.10 532.97 386.55
      A 0.66 0.65 -35.9 0 0 532.86 387.21
      Q 536.84 397.45 530.70 406.49
      C 525.16 414.64 514.16 417.52 505.35 413.19
      Q 492.15 406.70 493.48 392.31
      C 494.54 380.85 505.65 373.46 516.95 374.72
      A 1.18 1.18 0.0 0 0 517.91 374.38
      L 600.44 291.85
      A 3.55 3.50 13.0 0 1 601.77 291.03
      L 612.23 287.42
      A 0.46 0.45 86.7 0 1 612.82 287.95
      Z"
  />
</svg>
