<?xml version="1.0" encoding="UTF-8"?>
<svg
    xmlns="http://www.w3.org/2000/svg"
    viewBox="0 0 24 24"
    role="img"
    aria-label="Papers">

  <defs>
    <style>
      .mark { fill: currentColor; }
    </style>
  </defs>

  <!-- Document body -->
  <path
    class="mark"
    d="
      M6 2
      H14
      L18 6
      V20
      C18 21.1046 17.1046 22 16 22
      H6
      C4.8954 22 4 21.1046 4 20
      V4
      C4 2.8954 4.8954 2 6 2
      Z
      M13 3.5
      H6
      C5.7239 3.5 5.5 3.7239 5.5 4
      V20
      C5.5 20.2761 5.7239 20.5 6 20.5
      H16
      C16.2761 20.5 16.5 20.2761 16.5 20
      V7
      H14
      C13.4477 7 13 6.5523 13 6
      Z
    "
  />

  <!-- Folded corner -->
  <path
    class="mark"
    d="
      M14 2
      V6
      H18
      Z
    "
  />

  <!-- Lines (text) -->
  <path
    class="mark"
    d="
      M7.5 11
      H16
      V12.5
      H7.5
      Z
      M7.5 14.5
      H16
      V16
      H7.5
      Z
      M7.5 18
      H13.5
      V19.5
      H7.5
      Z
    "
  />
</svg>
